<svg width="447.41240234375px" height="70.4px" xmlns="http://www.w3.org/2000/svg" viewBox="26.293798828125006 39.8 447.41240234375 70.4" style="background: rgba(0, 0, 0, 0);" preserveAspectRatio="xMidYMid"><defs>
  <filter id="editing-scratch" x="-100%" y="-100%" width="300%" height="300%">
    <!-- COLOR -->
    <feFlood flood-color="#ddd" flood-opacity="0.75" result="COLOR-blu"></feFlood>
    <feFlood flood-color="#666" flood-opacity="0.4" result="COLOR-red"></feFlood>
    <!-- COLOR END -->

    <!-- Texture -->
    <feTurbulence baseFrequency=".05" type="fractalNoise" numOctaves="3" seed="0" result="Texture_10"></feTurbulence>
    <feColorMatrix type="matrix" values="0 0 0 0 0,
    0 0 0 0 0,
    0 0 0 0 0,
    0 0 0 -2.1 1.1" in="Texture_10" result="Texture_20"></feColorMatrix>

    <feColorMatrix result="Texture_30" type="matrix" values="0 0 0 0 0,
    0 0 0 0 0,
    0 0 0 0 0,
    0 0 0 -1.7 1.8" in="Texture_10"></feColorMatrix>
    <!-- Texture -->

    <!-- FILL -->
    <feOffset dx="-3" dy="4" in="SourceAlpha" result="FILL_10"></feOffset>
    <feDisplacementMap scale="17" in="FILL_10" in2="Texture_10" result="FILL_20"></feDisplacementMap>
    <feComposite operator="in" in="Texture_30" in2="FILL_20" result="FILL_40"></feComposite>
    <feComposite operator="in" in="COLOR-blu" in2="FILL_40" result="FILL_50"></feComposite>
    <!-- FILL END-->

    <!-- OUTLINE -->
    <feMorphology operator="dilate" radius="3" in="SourceGraphic" result="OUTLINE_10"></feMorphology>
    <feComposite operator="out" in="OUTLINE_10" in2="SourceGraphic" result="OUTLINE_20"></feComposite>
    <feDisplacementMap scale="7" in="OUTLINE_20" in2="Texture_10" result="OUTLINE_30"></feDisplacementMap>
    <feComposite operator="arithmetic" k2="-1" k3="1" in="Texture_20" in2="OUTLINE_30" result="OUTLINE_40"></feComposite>
    <!-- OUTLINE END-->

    <!-- BEVEL OUTLINE -->
    <feConvolveMatrix order="8,8" divisor="1" kernelMatrix="1 0 0 0 0 0 0 0 0 1 0 0 0 0 0 0 0 0 1 0 0 0 0 0 0 0 0 1 0 0 0 0 0 0 0 0 1 0 0 0 0 0 0 0 0 1 0 0 0 0 0 0 0 0 1 0 0 0 0 0 0 0 0 1 " in="SourceGraphic" result="BEVEL_10"></feConvolveMatrix>
    <feMorphology operator="dilate" radius="2" in="BEVEL_10" result="BEVEL_20"></feMorphology>
    <feComposite operator="out" in="BEVEL_20" in2="BEVEL_10" result="BEVEL_30"></feComposite>
    <feDisplacementMap scale="7" in="BEVEL_30" in2="Texture_10" result="BEVEL_40"></feDisplacementMap>
    <feComposite operator="arithmetic" k2="-1" k3="1" in="Texture_20" in2="BEVEL_40" result="BEVEL_50"></feComposite>
    <feOffset dx="-7" dy="-7" in="BEVEL_50" result="BEVEL_60"></feOffset>
    <feComposite operator="out" in="BEVEL_60" in2="OUTLINE_10" result="BEVEL_70"></feComposite>
    <!-- BEVEL OUTLINE END -->

    <!-- BEVEL FILL -->
    <feOffset dx="-9" dy="-9" in="BEVEL_10" result="BEVEL-FILL_10"></feOffset>
    <feComposite operator="out" in="BEVEL-FILL_10" in2="OUTLINE_10" result="BEVEL-FILL_20"></feComposite>
    <feDisplacementMap scale="17" in="BEVEL-FILL_20" in2="Texture_10" result="BEVEL-FILL_30"></feDisplacementMap>
    <feComposite operator="in" in="COLOR-red" in2="BEVEL-FILL_30" result="BEVEL-FILL_50"></feComposite> <!-- -->
    <!-- BEVEL FILL END-->

    <feMerge result="merge2">
     <feMergeNode in="BEVEL-FILL_50"></feMergeNode>
     <feMergeNode in="BEVEL_70"></feMergeNode>
     <feMergeNode in="FILL_50"></feMergeNode>
      <feMergeNode in="OUTLINE_40"></feMergeNode>
    </feMerge>
  </filter>
</defs>
<g filter="url(#editing-scratch)"><g transform="translate(93.40498566627502, 89.87999629974365)"><path d="M14.21-4.93L14.21-4.93L14.21-4.93Q14.82-4.16 14.82-2.91L14.82-2.91L14.82-2.91Q14.82-1.18 13.54-0.27L13.54-0.27L13.54-0.27Q12.26 0.64 10.24 0.64L10.24 0.64L10.24 0.64Q9.09 0.64 7.33 0.38L7.33 0.38L7.33 0.38Q3.87-0.16 2.82-0.16L2.82-0.16L2.82-0.16Q1.76-0.16 1.34-0.11L1.34-0.11L1.34-0.11Q0.93-0.06 0.26 0L0.26 0L4.19-21.12L17.98-21.12L17.98-21.12Q17.98-19.17 17.04-18.14L17.04-18.14L17.04-18.14Q16.10-17.12 14.24-17.12L14.24-17.12L14.24-17.12Q12.38-17.12 10.50-17.98L10.50-17.98L9.50-12.38L15.20-12.38L15.20-12.38Q15.20-10.69 14.37-9.74L14.37-9.74L14.37-9.74Q13.54-8.80 12.14-8.80L12.14-8.80L12.14-8.80Q10.75-8.80 9.89-9.12L9.89-9.12L9.89-9.12Q9.02-9.44 8.93-9.54L8.93-9.54L7.78-3.49L7.78-3.49Q8.54-3.39 9.98-3.39L9.98-3.39L9.98-3.39Q12.45-3.39 14.21-4.93ZM31.30 0.64L31.30 0.64L31.30 0.64Q27.42 0.64 27.42-2.37L27.42-2.37L27.42-2.37Q27.46-3.20 27.71-4.61L27.71-4.61L28.29-7.55L28.29-7.55Q29.15-11.71 29.15-12.64L29.15-12.64L29.15-12.64Q29.15-14.50 28.06-14.50L28.06-14.50L28.06-14.50Q26.24-14.50 25.28-9.73L25.28-9.73L23.39 0L16.96 0.64L20.29-16.35L25.54-16.96L25.02-13.82L25.02-13.82Q26.53-16.96 31.14-16.96L31.14-16.96L31.14-16.96Q33.38-16.96 34.32-16.02L34.32-16.02L34.32-16.02Q35.26-15.07 35.26-12.96L35.26-12.96L35.26-12.96Q35.26-10.98 34.24-6.34L34.24-6.34L34.24-6.34Q33.76-4.26 33.76-3.47L33.76-3.47L33.76-3.47Q33.76-2.69 34.19-2.24L34.19-2.24L34.19-2.24Q34.62-1.79 35.26-1.73L35.26-1.73L35.26-1.73Q34.94-0.64 33.84 0L33.84 0L33.84 0Q32.74 0.64 31.30 0.64ZM53.54-13.31L53.54-13.31L53.54-13.31Q53.54-11.97 52.42-11.14L52.42-11.14L52.42-11.14Q51.30-10.30 49.47-10.30L49.47-10.30L49.47-10.30Q48.70-10.30 48.26-10.53L48.26-10.53L48.26-10.53Q48.61-11.36 48.72-12.40L48.72-12.40L48.72-12.40Q48.83-13.44 48.83-13.73L48.83-13.73L48.83-13.73Q48.83-15.07 47.90-15.07L47.90-15.07L47.90-15.07Q47.26-15.07 46.54-14.27L46.54-14.27L46.54-14.27Q45.82-13.47 45.22-12.22L45.22-12.22L45.22-12.22Q43.87-9.34 43.87-6.43L43.87-6.43L43.87-6.43Q43.87-4.83 44.48-4.11L44.48-4.11L44.48-4.11Q45.09-3.39 46.43-3.39L46.43-3.39L46.43-3.39Q48.29-3.39 49.76-4.93L49.76-4.93L49.76-4.93Q50.18-5.41 50.40-5.95L50.40-5.95L50.40-5.95Q51.62-5.31 51.62-3.55L51.62-3.55L51.62-3.55Q51.62-1.76 49.63-0.58L49.63-0.58L49.63-0.58Q47.58 0.64 44.32 0.64L44.32 0.64L44.32 0.64Q37.82 0.64 37.82-6.24L37.82-6.24L37.82-6.24Q37.82-11.26 40.67-14.14L40.67-14.14L40.67-14.14Q43.42-16.96 48.48-16.96L48.48-16.96L48.48-16.96Q53.54-16.96 53.54-13.31ZM64.42-8.99L64.42-8.99L64.42-8.99Q65.57-11.04 65.57-13.12L65.57-13.12L65.57-13.12Q65.57-14.50 64.58-14.50L64.58-14.50L64.58-14.50Q63.81-14.50 63.01-13.18L63.01-13.18L63.01-13.18Q62.18-11.87 61.92-10.18L61.92-10.18L60.26 0L53.63 0.64L56.90-16.32L62.18-16.96L61.60-13.73L61.60-13.73Q63.17-16.96 66.69-16.96L66.69-16.96L66.69-16.96Q68.54-16.96 69.55-16L69.55-16L69.55-16Q70.56-15.04 70.56-13.07L70.56-13.07L70.56-13.07Q70.56-11.10 69.26-9.86L69.26-9.86L69.26-9.86Q67.97-8.61 65.76-8.61L65.76-8.61L65.76-8.61Q64.80-8.61 64.42-8.99ZM78.75-1.76L78.75-1.76L78.75-1.76Q77.76 0.64 74.59 0.64L74.59 0.64L74.59 0.64Q72.96 0.64 71.94-0.48L71.94-0.48L71.94-0.48Q71.07-1.47 71.07-2.46L71.07-2.46L71.07-2.46Q71.07-5.06 72.26-10.11L72.26-10.11L73.44-16.32L79.94-16.96L77.98-6.85L77.98-6.85Q77.44-4.48 77.44-3.65L77.44-3.65L77.44-3.65Q77.44-1.82 78.75-1.76ZM74.02-20.77L74.02-20.77L74.02-20.77Q74.02-22.02 75.06-22.69L75.06-22.69L75.06-22.69Q76.10-23.36 77.60-23.36L77.60-23.36L77.60-23.36Q79.10-23.36 80.02-22.69L80.02-22.69L80.02-22.69Q80.93-22.02 80.93-20.77L80.93-20.77L80.93-20.77Q80.93-19.52 79.92-18.88L79.92-18.88L79.92-18.88Q78.91-18.24 77.41-18.24L77.41-18.24L77.41-18.24Q75.90-18.24 74.96-18.88L74.96-18.88L74.96-18.88Q74.02-19.52 74.02-20.77ZM96.38-2.19L96.38-2.19L96.38-2.19Q95.04-0.83 93.20-0.10L93.20-0.10L93.20-0.10Q91.36 0.64 89.54 0.64L89.54 0.64L89.54 0.64Q87.71 0.64 87.07 0.32L87.07 0.32L86.08 5.76L79.58 6.40L84.00-16.32L89.22-16.86L88.80-14.66L88.80-14.66Q90.14-16.93 92.93-16.93L92.93-16.93L92.93-16.93Q96.06-16.93 97.73-14.91L97.73-14.91L97.73-14.91Q99.20-13.09 99.20-10.30L99.20-10.30L99.20-10.30Q99.20-7.52 98.46-5.54L98.46-5.54L98.46-5.54Q97.73-3.55 96.38-2.19ZM89.15-11.17L87.46-1.79L87.46-1.79Q88.13-1.22 88.96-1.22L88.96-1.22L88.96-1.22Q89.79-1.22 90.27-1.54L90.27-1.54L90.27-1.54Q90.75-1.86 91.10-2.50L91.10-2.50L91.10-2.50Q92.06-4.22 92.83-9.47L92.83-9.47L92.83-9.47Q93.06-11.01 93.06-12.51L93.06-12.51L93.06-12.51Q93.06-14.02 92.72-14.50L92.72-14.50L92.72-14.50Q92.38-14.98 91.74-14.98L91.74-14.98L91.74-14.98Q89.79-14.98 89.15-11.17L89.15-11.17ZM101.63-3.20L101.63-3.20L101.63-3.20Q101.63-4.06 102.08-6.24L102.08-6.24L103.78-14.88L101.89-14.88L102.02-15.84L102.02-15.84Q105.86-16.99 109.57-19.81L109.57-19.81L111.10-19.81L110.34-16.32L112.83-16.32L112.54-14.88L110.08-14.88L108.45-6.24L108.45-6.24Q108.03-4.26 108.03-3.58L108.03-3.58L108.03-3.58Q108.03-2.05 109.38-1.73L109.38-1.73L109.38-1.73Q109.06-0.64 107.90 0L107.90 0L107.90 0Q106.75 0.64 105.12 0.64L105.12 0.64L105.12 0.64Q103.49 0.64 102.56-0.38L102.56-0.38L102.56-0.38Q101.63-1.41 101.63-3.20ZM113.94-0.96L113.94-0.96L113.94-0.96Q113.18-1.79 112.85-3.10L112.85-3.10L112.85-3.10Q112.51-4.42 112.51-6.56L112.51-6.56L112.51-6.56Q112.51-8.70 113.25-10.66L113.25-10.66L113.25-10.66Q113.98-12.61 115.33-14.02L115.33-14.02L115.33-14.02Q118.08-16.96 122.62-16.96L122.62-16.96L122.62-16.96Q124.26-16.96 125.44-16.42L125.44-16.42L130.91-16.96L128.54-4.48L128.54-4.48Q128.45-4.10 128.45-3.39L128.45-3.39L128.45-3.39Q128.45-2.69 128.88-2.24L128.88-2.24L128.88-2.24Q129.31-1.79 129.95-1.73L129.95-1.73L129.95-1.73Q129.63-0.64 128.46 0L128.46 0L128.46 0Q127.30 0.64 125.98 0.64L125.98 0.64L125.98 0.64Q124.67 0.64 123.79 0.14L123.79 0.14L123.79 0.14Q122.91-0.35 122.66-1.18L122.66-1.18L122.66-1.18Q122.14-0.38 121.06 0.13L121.06 0.13L121.06 0.13Q119.97 0.64 118.51 0.64L118.51 0.64L118.51 0.64Q117.06 0.64 115.87 0.26L115.87 0.26L115.87 0.26Q114.69-0.13 113.94-0.96ZM120.69-13.95L120.69-13.95L120.69-13.95Q120.32-13.38 120.00-12.40L120.00-12.40L120.00-12.40Q119.68-11.42 119.15-8.82L119.15-8.82L119.15-8.82Q118.62-6.21 118.62-4.35L118.62-4.35L118.62-4.35Q118.62-2.50 118.91-1.95L118.91-1.95L118.91-1.95Q119.20-1.41 119.71-1.41L119.71-1.41L119.71-1.41Q120.74-1.41 121.49-2.38L121.49-2.38L121.49-2.38Q122.24-3.36 122.53-5.09L122.53-5.09L124.22-14.46L124.22-14.46Q123.55-15.04 122.77-15.04L122.77-15.04L122.77-15.04Q121.98-15.04 121.52-14.78L121.52-14.78L121.52-14.78Q121.06-14.53 120.69-13.95ZM142.59-16.96L142.59-16.96L142.59-16.96Q143.74-16.96 144.64-16.70L144.64-16.70L144.64-16.70Q144.67-16.83 144.74-17.18L144.74-17.18L144.90-18.18L144.90-18.18Q145.02-18.82 145.22-19.87L145.22-19.87L145.73-22.40L152.10-23.04L148.54-4.48L148.54-4.48Q148.51-4.29 148.51-3.97L148.51-3.97L148.51-3.46L148.51-3.46Q148.51-2.75 148.86-2.22L148.86-2.22L148.86-2.22Q149.22-1.70 149.79-1.70L149.79-1.70L149.79-1.70Q149.15-0.19 147.20 0.45L147.20 0.45L147.20 0.45Q146.53 0.64 145.58 0.64L145.58 0.64L145.58 0.64Q144.64 0.64 143.78 0.14L143.78 0.14L143.78 0.14Q142.91-0.35 142.66-1.18L142.66-1.18L142.66-1.18Q142.14-0.35 141.12 0.14L141.12 0.14L141.12 0.14Q140.10 0.64 138.61 0.64L138.61 0.64L138.61 0.64Q137.12 0.64 135.89 0.26L135.89 0.26L135.89 0.26Q134.66-0.13 133.89-0.96L133.89-0.96L133.89-0.96Q132.48-2.59 132.48-6.30L132.48-6.30L132.48-6.30Q132.48-11.10 135.30-14.02L135.30-14.02L135.30-14.02Q138.11-16.96 142.59-16.96ZM142.37-15.04L142.37-15.04L142.37-15.04Q141.18-15.04 140.54-13.76L140.54-13.76L140.54-13.76Q139.90-12.48 139.25-9.31L139.25-9.31L139.25-9.31Q138.59-6.14 138.59-3.30L138.59-3.30L138.59-3.30Q138.59-1.34 139.74-1.34L139.74-1.34L139.74-1.34Q140.77-1.34 141.49-2.37L141.49-2.37L141.49-2.37Q142.21-3.39 142.50-5.09L142.50-5.09L144.22-14.46L144.22-14.46Q143.55-15.04 142.37-15.04ZM159.49 0.64L159.49 0.64L159.49 0.64Q152.45 0.64 152.45-5.98L152.45-5.98L152.45-5.98Q152.45-10.69 155.04-13.73L155.04-13.73L155.04-13.73Q157.79-16.96 162.56-16.96L162.56-16.96L162.56-16.96Q166.02-16.96 167.78-15.36L167.78-15.36L167.78-15.36Q169.54-13.76 169.54-10.40L169.54-10.40L169.54-10.40Q169.54-5.28 166.78-2.30L166.78-2.30L166.78-2.30Q164.10 0.64 159.49 0.64ZM160.32-13.28L160.32-13.28L160.32-13.28Q159.94-12.42 159.63-11.12L159.63-11.12L159.63-11.12Q159.33-9.82 158.94-7.78L158.94-7.78L158.94-7.78Q158.56-5.73 158.56-3.20L158.56-3.20L158.56-3.20Q158.56-2.37 158.83-1.82L158.83-1.82L158.83-1.82Q159.10-1.28 159.84-1.28L159.84-1.28L159.84-1.28Q160.58-1.28 161.04-1.63L161.04-1.63L161.04-1.63Q161.50-1.98 161.86-2.82L161.86-2.82L161.86-2.82Q162.50-4.29 163.01-7.02L163.01-7.02L163.01-7.02Q163.52-9.76 163.57-10.94L163.57-10.94L163.57-10.94Q163.62-12.13 163.62-13.01L163.62-13.01L163.62-13.01Q163.62-13.89 163.36-14.46L163.36-14.46L163.36-14.46Q163.10-15.04 162.38-15.04L162.38-15.04L162.38-15.04Q161.66-15.04 161.18-14.59L161.18-14.59L161.18-14.59Q160.70-14.14 160.32-13.28ZM181.44-8.99L181.44-8.99L181.44-8.99Q182.59-11.04 182.59-13.12L182.59-13.12L182.59-13.12Q182.59-14.50 181.60-14.50L181.60-14.50L181.60-14.50Q180.83-14.50 180.03-13.18L180.03-13.18L180.03-13.18Q179.20-11.87 178.94-10.18L178.94-10.18L177.28 0L170.66 0.64L173.92-16.32L179.20-16.96L178.62-13.73L178.62-13.73Q180.19-16.96 183.71-16.96L183.71-16.96L183.71-16.96Q185.57-16.96 186.58-16L186.58-16L186.58-16Q187.58-15.04 187.58-13.07L187.58-13.07L187.58-13.07Q187.58-11.10 186.29-9.86L186.29-9.86L186.29-9.86Q184.99-8.61 182.78-8.61L182.78-8.61L182.78-8.61Q181.82-8.61 181.44-8.99ZM204.77-16.96L204.77-16.96L204.77-16.96Q205.92-16.96 206.82-16.70L206.82-16.70L206.82-16.70Q206.85-16.83 206.91-17.18L206.91-17.18L207.07-18.18L207.07-18.18Q207.20-18.82 207.39-19.87L207.39-19.87L207.90-22.40L214.27-23.04L210.72-4.48L210.72-4.48Q210.69-4.29 210.69-3.97L210.69-3.97L210.69-3.46L210.69-3.46Q210.69-2.75 211.04-2.22L211.04-2.22L211.04-2.22Q211.39-1.70 211.97-1.70L211.97-1.70L211.97-1.70Q211.33-0.19 209.38 0.45L209.38 0.45L209.38 0.45Q208.70 0.64 207.76 0.64L207.76 0.64L207.76 0.64Q206.82 0.64 205.95 0.14L205.95 0.14L205.95 0.14Q205.09-0.35 204.83-1.18L204.83-1.18L204.83-1.18Q204.32-0.35 203.30 0.14L203.30 0.14L203.30 0.14Q202.27 0.64 200.78 0.64L200.78 0.64L200.78 0.64Q199.30 0.64 198.06 0.26L198.06 0.26L198.06 0.26Q196.83-0.13 196.06-0.96L196.06-0.96L196.06-0.96Q194.66-2.59 194.66-6.30L194.66-6.30L194.66-6.30Q194.66-11.10 197.47-14.02L197.47-14.02L197.47-14.02Q200.29-16.96 204.77-16.96ZM204.54-15.04L204.54-15.04L204.54-15.04Q203.36-15.04 202.72-13.76L202.72-13.76L202.72-13.76Q202.08-12.48 201.42-9.31L201.42-9.31L201.42-9.31Q200.77-6.14 200.77-3.30L200.77-3.30L200.77-3.30Q200.77-1.34 201.92-1.34L201.92-1.34L201.92-1.34Q202.94-1.34 203.66-2.37L203.66-2.37L203.66-2.37Q204.38-3.39 204.67-5.09L204.67-5.09L206.40-14.46L206.40-14.46Q205.73-15.04 204.54-15.04ZM227.65-5.41L227.65-5.41L227.65-5.41Q228.45-4.86 228.45-3.66L228.45-3.66L228.45-3.66Q228.45-2.46 227.84-1.70L227.84-1.70L227.84-1.70Q227.23-0.93 226.24-0.42L226.24-0.42L226.24-0.42Q224.19 0.64 221.98 0.64L221.98 0.64L221.98 0.64Q219.78 0.64 218.48 0.16L218.48 0.16L218.48 0.16Q217.18-0.32 216.32-1.22L216.32-1.22L216.32-1.22Q214.62-2.91 214.62-6.02L214.62-6.02L214.62-6.02Q214.62-10.85 217.25-13.79L217.25-13.79L217.25-13.79Q220.06-16.96 224.96-16.96L224.96-16.96L224.96-16.96Q228.00-16.96 229.50-15.68L229.50-15.68L229.50-15.68Q230.62-14.72 230.62-13.15L230.62-13.15L230.62-13.15Q230.62-7.52 220.90-7.52L220.90-7.52L220.90-7.52Q220.77-6.69 220.77-5.98L220.77-5.98L220.77-5.98Q220.77-4.51 221.42-3.95L221.42-3.95L221.42-3.95Q222.08-3.39 223.30-3.39L223.30-3.39L223.30-3.39Q224.51-3.39 225.81-3.95L225.81-3.95L225.81-3.95Q227.10-4.51 227.65-5.41ZM221.12-8.90L221.12-8.90L221.12-8.90Q223.39-8.90 224.70-10.30L224.70-10.30L224.70-10.30Q226.02-11.65 226.02-13.79L226.02-13.79L226.02-13.79Q226.02-14.53 225.74-14.93L225.74-14.93L225.74-14.93Q225.47-15.33 224.93-15.33L224.93-15.33L224.93-15.33Q224.38-15.33 223.92-15.12L223.92-15.12L223.92-15.12Q223.46-14.91 222.98-14.21L222.98-14.21L222.98-14.21Q221.79-12.61 221.12-8.90ZM238.82-3.20L238.82-3.20L238.82-3.20Q238.82-4.06 239.26-6.24L239.26-6.24L240.96-14.88L239.07-14.88L239.20-15.84L239.20-15.84Q243.04-16.99 246.75-19.81L246.75-19.81L248.29-19.81L247.52-16.32L250.02-16.32L249.73-14.88L247.26-14.88L245.63-6.24L245.63-6.24Q245.22-4.26 245.22-3.58L245.22-3.58L245.22-3.58Q245.22-2.05 246.56-1.73L246.56-1.73L246.56-1.73Q246.24-0.64 245.09 0L245.09 0L245.09 0Q243.94 0.64 242.30 0.64L242.30 0.64L242.30 0.64Q240.67 0.64 239.74-0.38L239.74-0.38L239.74-0.38Q238.82-1.41 238.82-3.20ZM262.69-5.41L262.69-5.41L262.69-5.41Q263.49-4.86 263.49-3.66L263.49-3.66L263.49-3.66Q263.49-2.46 262.88-1.70L262.88-1.70L262.88-1.70Q262.27-0.93 261.28-0.42L261.28-0.42L261.28-0.42Q259.23 0.64 257.02 0.64L257.02 0.64L257.02 0.64Q254.82 0.64 253.52 0.16L253.52 0.16L253.52 0.16Q252.22-0.32 251.36-1.22L251.36-1.22L251.36-1.22Q249.66-2.91 249.66-6.02L249.66-6.02L249.66-6.02Q249.66-10.85 252.29-13.79L252.29-13.79L252.29-13.79Q255.10-16.96 260.00-16.96L260.00-16.96L260.00-16.96Q263.04-16.96 264.54-15.68L264.54-15.68L264.54-15.68Q265.66-14.72 265.66-13.15L265.66-13.15L265.66-13.15Q265.66-7.52 255.94-7.52L255.94-7.52L255.94-7.52Q255.81-6.69 255.81-5.98L255.81-5.98L255.81-5.98Q255.81-4.51 256.46-3.95L256.46-3.95L256.46-3.95Q257.12-3.39 258.34-3.39L258.34-3.39L258.34-3.39Q259.55-3.39 260.85-3.95L260.85-3.95L260.85-3.95Q262.14-4.51 262.69-5.41ZM256.16-8.90L256.16-8.90L256.16-8.90Q258.43-8.90 259.74-10.30L259.74-10.30L259.74-10.30Q261.06-11.65 261.06-13.79L261.06-13.79L261.06-13.79Q261.06-14.53 260.78-14.93L260.78-14.93L260.78-14.93Q260.51-15.33 259.97-15.33L259.97-15.33L259.97-15.33Q259.42-15.33 258.96-15.12L258.96-15.12L258.96-15.12Q258.50-14.91 258.02-14.21L258.02-14.21L258.02-14.21Q256.83-12.61 256.16-8.90ZM271.01 0.10L271.01 0.10L271.01 0.10Q269.98 0.64 268.58 0.64L268.58 0.64L268.58 0.64Q267.17 0.64 266.40-0.08L266.40-0.08L266.40-0.08Q265.63-0.80 265.63-2.19L265.63-2.19L265.63-2.19Q265.63-3.58 266.61-4.94L266.61-4.94L266.61-4.94Q267.58-6.30 269.04-7.07L269.04-7.07L269.04-7.07Q270.50-7.84 271.52-8.29L271.52-8.29L269.50-12.93L269.50-12.93Q268.96-14.11 267.94-14.11L267.94-14.11L267.68-14.08L267.58-14.08L267.58-14.08Q267.78-15.20 269.09-16.06L269.09-16.06L269.09-16.06Q270.40-16.96 271.90-16.96L271.90-16.96L271.90-16.96Q274.34-16.96 275.46-14.53L275.46-14.53L275.71-14.02L277.09-10.62L277.09-10.62Q277.95-11.01 278.32-11.73L278.32-11.73L278.32-11.73Q278.69-12.45 278.69-13.87L278.69-13.87L278.69-13.87Q278.69-15.30 277.92-16.19L277.92-16.19L277.92-16.19Q279.14-16.96 280.74-16.96L280.74-16.96L280.74-16.96Q283.62-16.96 283.62-14.18L283.62-14.18L283.62-14.18Q283.62-11.14 279.81-9.38L279.81-9.38L277.89-8.48L279.62-4.03L279.62-4.03Q280.13-2.69 281.06-2.11L281.06-2.11L281.06-2.11Q281.44-1.86 281.89-1.82L281.89-1.82L281.89-1.82Q280.93-0.26 278.85 0.45L278.85 0.45L278.85 0.45Q278.21 0.64 277.34 0.64L277.34 0.64L277.34 0.64Q276.48 0.64 275.49 0.05L275.49 0.05L275.49 0.05Q274.50-0.54 274.14-1.47L274.14-1.47L272.38-6.05L272.38-6.05Q270.59-5.25 270.59-2.34L270.59-2.34L270.59-2.34Q270.59-0.99 271.01 0.10ZM284.99-3.20L284.99-3.20L284.99-3.20Q284.99-4.06 285.44-6.24L285.44-6.24L287.14-14.88L285.25-14.88L285.38-15.84L285.38-15.84Q289.22-16.99 292.93-19.81L292.93-19.81L294.46-19.81L293.70-16.32L296.19-16.32L295.90-14.88L293.44-14.88L291.81-6.24L291.81-6.24Q291.39-4.26 291.39-3.58L291.39-3.58L291.39-3.58Q291.39-2.05 292.74-1.73L292.74-1.73L292.74-1.73Q292.42-0.64 291.26 0L291.26 0L291.26 0Q290.11 0.64 288.48 0.64L288.48 0.64L288.48 0.64Q286.85 0.64 285.92-0.38L285.92-0.38L285.92-0.38Q284.99-1.41 284.99-3.20ZM302.88 0.64L302.88 0.64L302.88 0.64Q295.84 0.64 295.84-5.98L295.84-5.98L295.84-5.98Q295.84-10.69 298.43-13.73L298.43-13.73L298.43-13.73Q301.18-16.96 305.95-16.96L305.95-16.96L305.95-16.96Q309.41-16.96 311.17-15.36L311.17-15.36L311.17-15.36Q312.93-13.76 312.93-10.40L312.93-10.40L312.93-10.40Q312.93-5.28 310.18-2.30L310.18-2.30L310.18-2.30Q307.49 0.64 302.88 0.64ZM303.71-13.28L303.71-13.28L303.71-13.28Q303.33-12.42 303.02-11.12L303.02-11.12L303.02-11.12Q302.72-9.82 302.34-7.78L302.34-7.78L302.34-7.78Q301.95-5.73 301.95-3.20L301.95-3.20L301.95-3.20Q301.95-2.37 302.22-1.82L302.22-1.82L302.22-1.82Q302.50-1.28 303.23-1.28L303.23-1.28L303.23-1.28Q303.97-1.28 304.43-1.63L304.43-1.63L304.43-1.63Q304.90-1.98 305.25-2.82L305.25-2.82L305.25-2.82Q305.89-4.29 306.40-7.02L306.40-7.02L306.40-7.02Q306.91-9.76 306.96-10.94L306.96-10.94L306.96-10.94Q307.01-12.13 307.01-13.01L307.01-13.01L307.01-13.01Q307.01-13.89 306.75-14.46L306.75-14.46L306.75-14.46Q306.50-15.04 305.78-15.04L305.78-15.04L305.78-15.04Q305.06-15.04 304.58-14.59L304.58-14.59L304.58-14.59Q304.10-14.14 303.71-13.28Z" fill="#000"></path></g></g><style>text {
  font-size: 64px;
  font-family: Arial Black;
  dominant-baseline: central;
  text-anchor: middle;
}</style></svg>