<svg width="225.93751220703123px" height="52.00000152587891px" xmlns="http://www.w3.org/2000/svg" viewBox="137.0312438964844 48.99999923706055 225.93751220703123 52.00000152587891" style="background: none;" preserveAspectRatio="xMidYMid"><defs><filter id="editing-lego" x="-100%" y="-100%" width="300%" height="300%"><feFlood flood-color="#000" result="f1"></feFlood><feFlood flood-color="#cdcdc5" result="f2"></feFlood><feMorphology operator="dilate" radius="3" in="SourceAlpha"></feMorphology><feConvolveMatrix order="5,5" divisor="1" result="cm1" kernelMatrix="0 1 1 1 0  1 0 0 0 1  1 0 0 0 1  1 0 0 0 1  0 1 1 1 0"></feConvolveMatrix><feComposite operator="in" in="f1" in2="cm1" result="c1"></feComposite><feMorphology operator="dilate" radius="3"></feMorphology><feConvolveMatrix order="5,5" divisor="1" result="cm2" kernelMatrix="0 1 1 1 0  1 0 0 0 1  1 0 0 0 1  1 0 0 0 1  0 1 1 1 0"></feConvolveMatrix><feComposite operator="in" in="f2" in2="cm2" result="c2"></feComposite><feMerge><feMergeNode in="c2"></feMergeNode><feMergeNode in="c1"></feMergeNode><feMergeNode in="SourceGraphic"></feMergeNode></feMerge></filter></defs><g filter="url(#editing-lego)"><g transform="translate(174.83998474478722, 82.88999605178833)"><path d="M4.44 0L0.16 0L2.60-13.14L2.60-13.14Q4.58-13.36 7.47-13.36L7.47-13.36L7.47-13.36Q10.36-13.36 11.70-12.52L11.70-12.52L11.70-12.52Q13.04-11.68 13.04-9.99L13.04-9.99L13.04-9.99Q13.04-8.30 12.17-7.24L12.17-7.24L12.17-7.24Q11.30-6.18 9.80-5.84L9.80-5.84L9.80-5.84Q10.14-4.18 10.92-2.84L10.92-2.84L10.92-2.84Q11.64-1.58 12.48-1.18L12.48-1.18L12.48-1.18Q12.18-0.34 11.57 0.03L11.57 0.03L11.57 0.03Q10.96 0.40 10.09 0.40L10.09 0.40L10.09 0.40Q9.22 0.40 8.54-0.11L8.54-0.11L8.54-0.11Q7.86-0.62 7.32-1.56L7.32-1.56L7.32-1.56Q6.18-3.60 6.06-6.82L6.06-6.82L6.20-6.82L6.20-6.82Q7.68-6.86 8.42-7.63L8.42-7.63L8.42-7.63Q9.16-8.40 9.16-10.02L9.16-10.02L9.16-10.02Q9.16-12.04 7.46-12.12L7.46-12.12L7.02-12.12L7.02-12.12Q6.84-12.12 6.74-12.10L6.74-12.10L4.44 0ZM18.76-1.10L18.76-1.10L18.76-1.10Q18.14 0.40 16.16 0.40L16.16 0.40L16.16 0.40Q15.14 0.40 14.50-0.30L14.50-0.30L14.50-0.30Q13.96-0.92 13.96-1.54L13.96-1.54L13.96-1.54Q13.96-3.16 14.70-6.32L14.70-6.32L15.44-10.20L19.50-10.60L18.28-4.28L18.28-4.28Q17.94-2.80 17.94-2.28L17.94-2.28L17.94-2.28Q17.94-1.14 18.76-1.10ZM15.80-12.98L15.80-12.98L15.80-12.98Q15.80-13.76 16.45-14.18L16.45-14.18L16.45-14.18Q17.10-14.60 18.04-14.60L18.04-14.60L18.04-14.60Q18.98-14.60 19.55-14.18L19.55-14.18L19.55-14.18Q20.12-13.76 20.12-12.98L20.12-12.98L20.12-12.98Q20.12-12.20 19.49-11.80L19.49-11.80L19.49-11.80Q18.86-11.40 17.92-11.40L17.92-11.40L17.92-11.40Q16.98-11.40 16.39-11.80L16.39-11.80L16.39-11.80Q15.80-12.20 15.80-12.98ZM30.28-8.32L30.28-8.32L30.28-8.32Q30.28-7.48 29.58-6.96L29.58-6.96L29.58-6.96Q28.88-6.44 27.74-6.44L27.74-6.44L27.74-6.44Q27.26-6.44 26.98-6.58L26.98-6.58L26.98-6.58Q27.20-7.10 27.27-7.75L27.27-7.75L27.27-7.75Q27.34-8.40 27.34-8.58L27.34-8.58L27.34-8.58Q27.34-9.42 26.76-9.42L26.76-9.42L26.76-9.42Q26.36-9.42 25.91-8.92L25.91-8.92L25.91-8.92Q25.46-8.42 25.08-7.64L25.08-7.64L25.08-7.64Q24.24-5.84 24.24-4.02L24.24-4.02L24.24-4.02Q24.24-3.02 24.62-2.57L24.62-2.57L24.62-2.57Q25-2.12 25.84-2.12L25.84-2.12L25.84-2.12Q27-2.12 27.92-3.08L27.92-3.08L27.92-3.08Q28.18-3.38 28.32-3.72L28.32-3.72L28.32-3.72Q29.08-3.32 29.08-2.22L29.08-2.22L29.08-2.22Q29.08-1.10 27.84-0.36L27.84-0.36L27.84-0.36Q26.56 0.40 24.52 0.40L24.52 0.40L24.52 0.40Q20.46 0.40 20.46-3.90L20.46-3.90L20.46-3.90Q20.46-7.04 22.24-8.84L22.24-8.84L22.24-8.84Q23.96-10.60 27.12-10.60L27.12-10.60L27.12-10.60Q30.28-10.60 30.28-8.32ZM31.69-0.60L31.69-0.60L31.69-0.60Q31.22-1.12 31.01-1.94L31.01-1.94L31.01-1.94Q30.80-2.76 30.80-4.10L30.80-4.10L30.80-4.10Q30.80-5.44 31.26-6.66L31.26-6.66L31.26-6.66Q31.72-7.88 32.56-8.76L32.56-8.76L32.56-8.76Q34.28-10.60 37.12-10.60L37.12-10.60L37.12-10.60Q38.14-10.60 38.88-10.26L38.88-10.26L42.30-10.60L40.82-2.80L40.82-2.80Q40.76-2.56 40.76-2.12L40.76-2.12L40.76-2.12Q40.76-1.68 41.03-1.40L41.03-1.40L41.03-1.40Q41.30-1.12 41.70-1.08L41.70-1.08L41.70-1.08Q41.50-0.40 40.77 0L40.77 0L40.77 0Q40.04 0.40 39.22 0.40L39.22 0.40L39.22 0.40Q38.40 0.40 37.85 0.09L37.85 0.09L37.85 0.09Q37.30-0.22 37.14-0.74L37.14-0.74L37.14-0.74Q36.82-0.24 36.14 0.08L36.14 0.08L36.14 0.08Q35.46 0.40 34.55 0.40L34.55 0.40L34.55 0.40Q33.64 0.40 32.90 0.16L32.90 0.16L32.90 0.16Q32.16-0.08 31.69-0.60ZM35.91-8.72L35.91-8.72L35.91-8.72Q35.68-8.36 35.48-7.75L35.48-7.75L35.48-7.75Q35.28-7.14 34.95-5.51L34.95-5.51L34.95-5.51Q34.62-3.88 34.62-2.72L34.62-2.72L34.62-2.72Q34.62-1.56 34.80-1.22L34.80-1.22L34.80-1.22Q34.98-0.88 35.30-0.88L35.30-0.88L35.30-0.88Q35.94-0.88 36.41-1.49L36.41-1.49L36.41-1.49Q36.88-2.10 37.06-3.18L37.06-3.18L38.12-9.04L38.12-9.04Q37.70-9.40 37.21-9.40L37.21-9.40L37.21-9.40Q36.72-9.40 36.43-9.24L36.43-9.24L36.43-9.24Q36.14-9.08 35.91-8.72ZM49.64-5.62L49.64-5.62L49.64-5.62Q50.36-6.90 50.36-8.20L50.36-8.20L50.36-8.20Q50.36-9.06 49.74-9.06L49.74-9.06L49.74-9.06Q49.26-9.06 48.76-8.24L48.76-8.24L48.76-8.24Q48.24-7.42 48.08-6.36L48.08-6.36L47.04 0L42.90 0.40L44.94-10.20L48.24-10.60L47.88-8.58L47.88-8.58Q48.86-10.60 51.06-10.60L51.06-10.60L51.06-10.60Q52.22-10.60 52.85-10L52.85-10L52.85-10Q53.48-9.40 53.48-8.17L53.48-8.17L53.48-8.17Q53.48-6.94 52.67-6.16L52.67-6.16L52.67-6.16Q51.86-5.38 50.48-5.38L50.48-5.38L50.48-5.38Q49.88-5.38 49.64-5.62ZM60.10-10.60L60.10-10.60L60.10-10.60Q60.82-10.60 61.38-10.44L61.38-10.44L61.38-10.44Q61.40-10.52 61.44-10.74L61.44-10.74L61.54-11.36L61.54-11.36Q61.62-11.76 61.74-12.42L61.74-12.42L62.06-14L66.04-14.40L63.82-2.80L63.82-2.80Q63.80-2.68 63.80-2.48L63.80-2.48L63.80-2.16L63.80-2.16Q63.80-1.72 64.02-1.39L64.02-1.39L64.02-1.39Q64.24-1.06 64.60-1.06L64.60-1.06L64.60-1.06Q64.20-0.12 62.98 0.28L62.98 0.28L62.98 0.28Q62.56 0.40 61.97 0.40L61.97 0.40L61.97 0.40Q61.38 0.40 60.84 0.09L60.84 0.09L60.84 0.09Q60.30-0.22 60.14-0.74L60.14-0.74L60.14-0.74Q59.82-0.22 59.18 0.09L59.18 0.09L59.18 0.09Q58.54 0.40 57.61 0.40L57.61 0.40L57.61 0.40Q56.68 0.40 55.91 0.16L55.91 0.16L55.91 0.16Q55.14-0.08 54.66-0.60L54.66-0.60L54.66-0.60Q53.78-1.62 53.78-3.94L53.78-3.94L53.78-3.94Q53.78-6.94 55.54-8.76L55.54-8.76L55.54-8.76Q57.30-10.60 60.10-10.60ZM59.96-9.40L59.96-9.40L59.96-9.40Q59.22-9.40 58.82-8.60L58.82-8.60L58.82-8.60Q58.42-7.80 58.01-5.82L58.01-5.82L58.01-5.82Q57.60-3.84 57.60-2.06L57.60-2.06L57.60-2.06Q57.60-0.84 58.32-0.84L58.32-0.84L58.32-0.84Q58.96-0.84 59.41-1.48L59.41-1.48L59.41-1.48Q59.86-2.12 60.04-3.18L60.04-3.18L61.12-9.04L61.12-9.04Q60.70-9.40 59.96-9.40ZM70.66 0.40L70.66 0.40L70.66 0.40Q66.26 0.40 66.26-3.74L66.26-3.74L66.26-3.74Q66.26-6.68 67.88-8.58L67.88-8.58L67.88-8.58Q69.60-10.60 72.58-10.60L72.58-10.60L72.58-10.60Q74.74-10.60 75.84-9.60L75.84-9.60L75.84-9.60Q76.94-8.60 76.94-6.50L76.94-6.50L76.94-6.50Q76.94-3.30 75.22-1.44L75.22-1.44L75.22-1.44Q73.54 0.40 70.66 0.40ZM71.18-8.30L71.18-8.30L71.18-8.30Q70.94-7.76 70.75-6.95L70.75-6.95L70.75-6.95Q70.56-6.14 70.32-4.86L70.32-4.86L70.32-4.86Q70.08-3.58 70.08-2L70.08-2L70.08-2Q70.08-1.48 70.25-1.14L70.25-1.14L70.25-1.14Q70.42-0.80 70.88-0.80L70.88-0.80L70.88-0.80Q71.34-0.80 71.63-1.02L71.63-1.02L71.63-1.02Q71.92-1.24 72.14-1.76L72.14-1.76L72.14-1.76Q72.54-2.68 72.86-4.39L72.86-4.39L72.86-4.39Q73.18-6.10 73.21-6.84L73.21-6.84L73.21-6.84Q73.24-7.58 73.24-8.13L73.24-8.13L73.24-8.13Q73.24-8.68 73.08-9.04L73.08-9.04L73.08-9.04Q72.92-9.40 72.47-9.40L72.47-9.40L72.47-9.40Q72.02-9.40 71.72-9.12L71.72-9.12L71.72-9.12Q71.42-8.84 71.18-8.30ZM86.34 0L82.06 0L84.50-13.14L84.50-13.14Q86.48-13.36 89.37-13.36L89.37-13.36L89.37-13.36Q92.26-13.36 93.60-12.52L93.60-12.52L93.60-12.52Q94.94-11.68 94.94-9.99L94.94-9.99L94.94-9.99Q94.94-8.30 94.07-7.24L94.07-7.24L94.07-7.24Q93.20-6.18 91.70-5.84L91.70-5.84L91.70-5.84Q92.04-4.18 92.82-2.84L92.82-2.84L92.82-2.84Q93.54-1.58 94.38-1.18L94.38-1.18L94.38-1.18Q94.08-0.34 93.47 0.03L93.47 0.03L93.47 0.03Q92.86 0.40 91.99 0.40L91.99 0.40L91.99 0.40Q91.12 0.40 90.44-0.11L90.44-0.11L90.44-0.11Q89.76-0.62 89.22-1.56L89.22-1.56L89.22-1.56Q88.08-3.60 87.96-6.82L87.96-6.82L88.10-6.82L88.10-6.82Q89.58-6.86 90.32-7.63L90.32-7.63L90.32-7.63Q91.06-8.40 91.06-10.02L91.06-10.02L91.06-10.02Q91.06-12.04 89.36-12.12L89.36-12.12L88.92-12.12L88.92-12.12Q88.74-12.12 88.64-12.10L88.64-12.10L86.34 0ZM100.22 0.40L100.22 0.40L100.22 0.40Q95.82 0.40 95.82-3.74L95.82-3.74L95.82-3.74Q95.82-6.68 97.44-8.58L97.44-8.58L97.44-8.58Q99.16-10.60 102.14-10.60L102.14-10.60L102.14-10.60Q104.30-10.60 105.40-9.60L105.40-9.60L105.40-9.60Q106.50-8.60 106.50-6.50L106.50-6.50L106.50-6.50Q106.50-3.30 104.78-1.44L104.78-1.44L104.78-1.44Q103.10 0.40 100.22 0.40ZM100.74-8.30L100.74-8.30L100.74-8.30Q100.50-7.76 100.31-6.95L100.31-6.95L100.31-6.95Q100.12-6.14 99.88-4.86L99.88-4.86L99.88-4.86Q99.64-3.58 99.64-2L99.64-2L99.64-2Q99.64-1.48 99.81-1.14L99.81-1.14L99.81-1.14Q99.98-0.80 100.44-0.80L100.44-0.80L100.44-0.80Q100.90-0.80 101.19-1.02L101.19-1.02L101.19-1.02Q101.48-1.24 101.70-1.76L101.70-1.76L101.70-1.76Q102.10-2.68 102.42-4.39L102.42-4.39L102.42-4.39Q102.74-6.10 102.77-6.84L102.77-6.84L102.77-6.84Q102.80-7.58 102.80-8.13L102.80-8.13L102.80-8.13Q102.80-8.68 102.64-9.04L102.64-9.04L102.64-9.04Q102.48-9.40 102.03-9.40L102.03-9.40L102.03-9.40Q101.58-9.40 101.28-9.12L101.28-9.12L101.28-9.12Q100.98-8.84 100.74-8.30ZM112.46-1.10L112.46-1.10L112.46-1.10Q111.84 0.40 109.86 0.40L109.86 0.40L109.86 0.40Q108.86 0.40 108.22-0.30L108.22-0.30L108.22-0.30Q107.70-0.88 107.70-1.54L107.70-1.54L107.70-1.54Q107.70-3.04 108.40-6.32L108.40-6.32L109.86-14L113.92-14.40L111.98-4.28L111.98-4.28Q111.64-2.80 111.64-2.28L111.64-2.28L111.64-2.28Q111.64-1.14 112.46-1.10ZM120.46-10.60L120.46-10.60L120.46-10.60Q121.18-10.60 121.74-10.44L121.74-10.44L121.74-10.44Q121.76-10.52 121.80-10.74L121.80-10.74L121.90-11.36L121.90-11.36Q121.98-11.76 122.10-12.42L122.10-12.42L122.42-14L126.40-14.40L124.18-2.80L124.18-2.80Q124.16-2.68 124.16-2.48L124.16-2.48L124.16-2.16L124.16-2.16Q124.16-1.72 124.38-1.39L124.38-1.39L124.38-1.39Q124.60-1.06 124.96-1.06L124.96-1.06L124.96-1.06Q124.56-0.12 123.34 0.28L123.34 0.28L123.34 0.28Q122.92 0.40 122.33 0.40L122.33 0.40L122.33 0.40Q121.74 0.40 121.20 0.09L121.20 0.09L121.20 0.09Q120.66-0.22 120.50-0.74L120.50-0.74L120.50-0.74Q120.18-0.22 119.54 0.09L119.54 0.09L119.54 0.09Q118.90 0.40 117.97 0.40L117.97 0.40L117.97 0.40Q117.04 0.40 116.27 0.16L116.27 0.16L116.27 0.16Q115.50-0.08 115.02-0.60L115.02-0.60L115.02-0.60Q114.14-1.62 114.14-3.94L114.14-3.94L114.14-3.94Q114.14-6.94 115.90-8.76L115.90-8.76L115.90-8.76Q117.66-10.60 120.46-10.60ZM120.32-9.40L120.32-9.40L120.32-9.40Q119.58-9.40 119.18-8.60L119.18-8.60L119.18-8.60Q118.78-7.80 118.37-5.82L118.37-5.82L118.37-5.82Q117.96-3.84 117.96-2.06L117.96-2.06L117.96-2.06Q117.96-0.84 118.68-0.84L118.68-0.84L118.68-0.84Q119.32-0.84 119.77-1.48L119.77-1.48L119.77-1.48Q120.22-2.12 120.40-3.18L120.40-3.18L121.48-9.04L121.48-9.04Q121.06-9.40 120.32-9.40ZM131.88-12.46L136.60-15.38L136.60-15.38Q137.32-15.10 137.32-14.06L137.32-14.06L137.32-14.06Q137.32-13.18 136.48-12.62L136.48-12.62L136.48-12.62Q135.78-12.14 134.76-11.96L134.76-11.96L132.30-11.50L131.88-12.46ZM127.53-0.60L127.53-0.60L127.53-0.60Q127.06-1.12 126.85-1.94L126.85-1.94L126.85-1.94Q126.64-2.76 126.64-4.10L126.64-4.10L126.64-4.10Q126.64-5.44 127.10-6.66L127.10-6.66L127.10-6.66Q127.56-7.88 128.40-8.76L128.40-8.76L128.40-8.76Q130.12-10.60 132.96-10.60L132.96-10.60L132.96-10.60Q133.98-10.60 134.72-10.26L134.72-10.26L138.14-10.60L136.66-2.80L136.66-2.80Q136.60-2.56 136.60-2.12L136.60-2.12L136.60-2.12Q136.60-1.68 136.87-1.40L136.87-1.40L136.87-1.40Q137.14-1.12 137.54-1.08L137.54-1.08L137.54-1.08Q137.34-0.40 136.61 0L136.61 0L136.61 0Q135.88 0.40 135.06 0.40L135.06 0.40L135.06 0.40Q134.24 0.40 133.69 0.09L133.69 0.09L133.69 0.09Q133.14-0.22 132.98-0.74L132.98-0.74L132.98-0.74Q132.66-0.24 131.98 0.08L131.98 0.08L131.98 0.08Q131.30 0.40 130.39 0.40L130.39 0.40L130.39 0.40Q129.48 0.40 128.74 0.16L128.74 0.16L128.74 0.16Q128-0.08 127.53-0.60ZM131.75-8.72L131.75-8.72L131.75-8.72Q131.52-8.36 131.32-7.75L131.32-7.75L131.32-7.75Q131.12-7.14 130.79-5.51L130.79-5.51L130.79-5.51Q130.46-3.88 130.46-2.72L130.46-2.72L130.46-2.72Q130.46-1.56 130.64-1.22L130.64-1.22L130.64-1.22Q130.82-0.88 131.14-0.88L131.14-0.88L131.14-0.88Q131.78-0.88 132.25-1.49L132.25-1.49L132.25-1.49Q132.72-2.10 132.90-3.18L132.90-3.18L133.96-9.04L133.96-9.04Q133.54-9.40 133.05-9.40L133.05-9.40L133.05-9.40Q132.56-9.40 132.27-9.24L132.27-9.24L132.27-9.24Q131.98-9.08 131.75-8.72ZM147.68 0.40L147.68 0.40L147.68 0.40Q145.26 0.40 145.26-1.48L145.26-1.48L145.26-1.48Q145.28-2 145.44-2.88L145.44-2.88L145.80-4.72L145.80-4.72Q146.34-7.32 146.34-7.90L146.34-7.90L146.34-7.90Q146.34-9.06 145.66-9.06L145.66-9.06L145.66-9.06Q144.52-9.06 143.92-6.08L143.92-6.08L142.74 0L138.72 0.40L140.80-10.22L144.08-10.60L143.76-8.64L143.76-8.64Q144.70-10.60 147.58-10.60L147.58-10.60L147.58-10.60Q148.98-10.60 149.57-10.01L149.57-10.01L149.57-10.01Q150.16-9.42 150.16-8.10L150.16-8.10L150.16-8.10Q150.16-6.86 149.52-3.96L149.52-3.96L149.52-3.96Q149.22-2.66 149.22-2.17L149.22-2.17L149.22-2.17Q149.22-1.68 149.49-1.40L149.49-1.40L149.49-1.40Q149.76-1.12 150.16-1.08L150.16-1.08L150.16-1.08Q149.96-0.40 149.27 0L149.27 0L149.27 0Q148.58 0.40 147.68 0.40Z" fill="#ffffff"></path></g></g><style>text {
  font-size: 64px;
  font-family: Arial Black;
  dominant-baseline: central;
  text-anchor: middle;
}</style></svg>