<?xml version="1.0" encoding="iso-8859-1"?>
<!-- Uploaded to: SVG Repo, www.svgrepo.com, Generator: SVG Repo Mixer Tools -->
<svg version="1.1" id="Layer_1" xmlns="http://www.w3.org/2000/svg" xmlns:xlink="http://www.w3.org/1999/xlink" 
	 viewBox="0 0 512 512" xml:space="preserve">
<g>
	<rect x="40.421" y="50.661" style="fill:#ACABB1;" width="86.232" height="44.194"/>
	<rect x="385.347" y="50.661" style="fill:#ACABB1;" width="86.232" height="44.194"/>
</g>
<path style="fill:#3E3D43;" d="M449.482,108.587V36.929c0-4.321,3.503-7.826,7.826-7.826h39.323c4.321,0,7.826,3.503,7.826,7.826
	v71.66c0,4.321-3.503,7.826-7.826,7.826h-39.323C452.985,116.413,449.482,112.909,449.482,108.587z"/>
<path style="fill:#2E2D30;" d="M496.629,29.103h-32.876c4.321,0,7.826,3.503,7.826,7.826v71.658c0,4.321-3.503,7.826-7.826,7.826
	h32.876c4.321,0,7.826-3.503,7.826-7.826V36.929C504.455,32.606,500.952,29.103,496.629,29.103z"/>
<path style="fill:#3E3D43;" d="M8.084,108.587V36.929c0-4.321,3.503-7.826,7.826-7.826h39.322c4.321,0,7.826,3.503,7.826,7.826
	v71.66c0,4.321-3.503,7.826-7.826,7.826H15.91C11.587,116.413,8.084,112.909,8.084,108.587z"/>
<path style="fill:#ACABB1;" d="M53.695,504.455c-25.447,0-46.15-20.703-46.15-46.15V226.158c0-25.447,20.703-46.15,46.15-46.15
	h404.608c25.448,0,46.151,20.703,46.151,46.15v232.145c0,25.448-20.703,46.151-46.15,46.151H53.695z"/>
<path style="fill:#898790;" d="M458.305,180.008h-33.42c25.447,0,46.15,20.703,46.15,46.15v232.145
	c0,25.447-20.703,46.15-46.15,46.15h33.42c25.447,0.001,46.15-20.702,46.15-46.149V226.158
	C504.455,200.712,483.752,180.008,458.305,180.008z"/>
<path style="fill:#ECE5DD;" d="M104.556,212.884V27.246c0-10.863,8.838-19.701,19.702-19.701h263.485
	c10.864,0,19.702,8.838,19.702,19.701v185.638H104.556z"/>
<path style="fill:#D9CBBD;" d="M387.742,7.545h-30.933c10.864,0,19.702,8.838,19.702,19.701v185.638h30.933V27.246
	C407.444,16.383,398.607,7.545,387.742,7.545z"/>
<path style="fill:#3E3D43;" d="M90.567,256.539c-16.061,0-29.127-13.066-29.127-29.126V166.02c0-16.061,13.066-29.127,29.127-29.127
	h330.866c16.061,0,29.127,13.066,29.127,29.126v61.394c0,16.061-13.066,29.127-29.127,29.127H90.567z"/>
<path style="fill:#2E2D30;" d="M421.433,136.893h-33.42c16.061,0,29.127,13.066,29.127,29.126v61.394
	c0,16.06-13.066,29.126-29.127,29.126h33.42c16.061,0,29.127-13.066,29.127-29.126v-61.394
	C450.56,149.959,437.494,136.893,421.433,136.893z"/>
<path style="fill:#ECE5DD;" d="M104.556,451.667v-6.751c0-8.789-7.125-15.914-15.914-15.914H60.333c-5.342,0-9.672-4.33-9.672-9.672
	V297.47c0-5.342,4.33-9.672,9.672-9.672h391.334c5.342,0,9.672,4.33,9.672,9.672v121.86c0,5.342-4.33,9.672-9.672,9.672h-28.309
	c-8.789,0-15.914,7.125-15.914,15.914v6.751c0,5.342-4.33,9.672-9.672,9.672H114.228
	C108.886,461.339,104.556,457.009,104.556,451.667z"/>
<g>
	<path style="fill:#3E3D43;" d="M126.653,320.135c12.185,0,22.097,9.912,22.097,22.097s-9.912,22.097-22.097,22.097
		s-22.097-9.912-22.097-22.097S114.468,320.135,126.653,320.135z"/>
	<path style="fill:#3E3D43;" d="M170.307,385.347c12.185,0,22.097,9.912,22.097,22.097s-9.912,22.097-22.097,22.097
		s-22.097-9.912-22.097-22.097S158.123,385.347,170.307,385.347z"/>
	<path style="fill:#3E3D43;" d="M256.539,385.347c12.185,0,22.097,9.912,22.097,22.097s-9.912,22.097-22.097,22.097
		c-12.185,0-22.097-9.912-22.097-22.097S244.354,385.347,256.539,385.347z"/>
	<path style="fill:#3E3D43;" d="M342.771,385.347c12.185,0,22.097,9.912,22.097,22.097s-9.912,22.097-22.097,22.097
		s-22.097-9.912-22.097-22.097S330.586,385.347,342.771,385.347z"/>
	<path style="fill:#3E3D43;" d="M213.423,320.135c12.185,0,22.097,9.912,22.097,22.097s-9.912,22.097-22.097,22.097
		c-12.185,0-22.097-9.912-22.097-22.097S201.239,320.135,213.423,320.135z"/>
	<path style="fill:#3E3D43;" d="M299.655,320.135c12.185,0,22.097,9.912,22.097,22.097s-9.912,22.097-22.097,22.097
		s-22.097-9.912-22.097-22.097S287.47,320.135,299.655,320.135z"/>
	<path style="fill:#3E3D43;" d="M385.886,320.135c12.185,0,22.097,9.912,22.097,22.097s-9.912,22.097-22.097,22.097
		s-22.097-9.912-22.097-22.097S373.702,320.135,385.886,320.135z"/>
</g>
<g>
	<path style="fill:#2E2D30;" d="M126.653,320.135c-3.971,0-7.69,1.067-10.914,2.908c6.669,3.808,11.183,10.975,11.183,19.189
		s-4.514,15.382-11.183,19.189c3.224,1.841,6.943,2.908,10.914,2.908c12.185,0,22.097-9.912,22.097-22.097
		S138.837,320.135,126.653,320.135z"/>
	<path style="fill:#2E2D30;" d="M170.307,385.347c-3.971,0-7.69,1.067-10.914,2.908c6.669,3.808,11.183,10.975,11.183,19.189
		c0,8.214-4.514,15.382-11.183,19.189c3.224,1.841,6.943,2.908,10.914,2.908c12.185,0,22.097-9.912,22.097-22.097
		S182.492,385.347,170.307,385.347z"/>
	<path style="fill:#2E2D30;" d="M256.539,385.347c-3.971,0-7.69,1.067-10.914,2.908c6.669,3.808,11.183,10.975,11.183,19.189
		c0,8.214-4.514,15.382-11.183,19.189c3.224,1.841,6.943,2.908,10.914,2.908c12.185,0,22.097-9.912,22.097-22.097
		S268.723,385.347,256.539,385.347z"/>
	<path style="fill:#2E2D30;" d="M342.771,385.347c-3.971,0-7.69,1.067-10.914,2.908c6.669,3.808,11.183,10.975,11.183,19.189
		c0,8.214-4.514,15.382-11.183,19.189c3.224,1.841,6.943,2.908,10.914,2.908c12.185,0,22.097-9.912,22.097-22.097
		S354.955,385.347,342.771,385.347z"/>
	<path style="fill:#2E2D30;" d="M213.423,320.135c-3.971,0-7.69,1.067-10.914,2.908c6.669,3.808,11.183,10.975,11.183,19.189
		s-4.514,15.382-11.183,19.189c3.224,1.841,6.943,2.908,10.914,2.908c12.185,0,22.097-9.912,22.097-22.097
		S225.608,320.135,213.423,320.135z"/>
	<path style="fill:#2E2D30;" d="M299.655,320.135c-3.971,0-7.69,1.067-10.914,2.908c6.669,3.808,11.183,10.975,11.183,19.189
		s-4.514,15.382-11.183,19.189c3.224,1.841,6.943,2.908,10.914,2.908c12.185,0,22.097-9.912,22.097-22.097
		S311.839,320.135,299.655,320.135z"/>
	<path style="fill:#2E2D30;" d="M385.886,320.135c-3.971,0-7.69,1.067-10.914,2.908c6.669,3.808,11.183,10.975,11.183,19.189
		s-4.514,15.382-11.183,19.189c3.224,1.841,6.943,2.908,10.914,2.908c12.185,0,22.097-9.912,22.097-22.097
		S398.071,320.135,385.886,320.135z"/>
</g>
<path style="fill:#898790;" d="M290.592,153.396L256,135.749l123.481,1.144l-5.714,12.265c-4.443,9.536-10.075,18.545-16.741,26.776
	l-4.162,5.139L290.592,153.396z"/>
<path style="fill:#77767F;" d="M256,135.749l98.082,44.684l-9.561,8.892c-8.561,7.962-18.181,14.749-28.59,20.172l-6.646,3.462
	L256,135.749z"/>
<path style="fill:#57565C;" d="M256,135.749l54.453,76.99l-10.737,3.848c-11.315,4.055-23.109,6.516-35.057,7.315l-9.198,0.614
	L256,135.749z"/>
<path style="fill:#3E3D43;" d="M247.341,223.902c-11.948-0.799-23.743-3.26-35.057-7.315l-10.737-3.848L256,135.75l0.539,88.768
	L247.341,223.902z"/>
<path style="fill:#2E2D30;" d="M196.068,209.496c-10.409-5.423-20.029-12.209-28.59-20.172l-9.561-8.892l98.082-44.684
	l-53.286,77.21L196.068,209.496z"/>
<path style="fill:#1D1D20;" d="M154.973,175.934c-6.666-8.231-12.298-17.24-16.741-26.776l-5.714-12.265L256,135.749l-34.592,17.646
	l-62.273,27.677L154.973,175.934z"/>
<g>
	<path style="fill:#BABABA;" d="M148.211,59.284h140.126c4.465,0,8.084-3.618,8.084-8.084s-3.62-8.084-8.084-8.084H148.211
		c-4.465,0-8.084,3.618-8.084,8.084S143.746,59.284,148.211,59.284z"/>
	<path style="fill:#BABABA;" d="M363.789,43.116h-43.116c-4.465,0-8.084,3.618-8.084,8.084s3.62,8.084,8.084,8.084h43.116
		c4.465,0,8.084-3.618,8.084-8.084S368.254,43.116,363.789,43.116z"/>
	<path style="fill:#BABABA;" d="M169.768,86.232h-21.558c-4.465,0-8.084,3.618-8.084,8.084c0,4.466,3.62,8.084,8.084,8.084h21.558
		c4.465,0,8.084-3.618,8.084-8.084C177.853,89.85,174.233,86.232,169.768,86.232z"/>
	<path style="fill:#BABABA;" d="M363.789,86.232H202.105c-4.465,0-8.084,3.618-8.084,8.084c0,4.466,3.62,8.084,8.084,8.084h161.684
		c4.465,0,8.084-3.618,8.084-8.084C371.874,89.85,368.254,86.232,363.789,86.232z"/>
</g>
<path d="M350.496,288.337c0,4.465,3.62,8.084,8.084,8.084h94.136v123.958h-39.029c-8.209,0-14.865,6.655-14.865,14.865v17.472
	H113.179v-17.472c0-8.21-6.655-14.865-14.865-14.865H59.284V296.421h263.651c4.465,0,8.084-3.62,8.084-8.084
	s-3.62-8.084-8.084-8.084H57.981c-8.21,0-14.865,6.655-14.865,14.865v126.564c0,8.21,6.655,14.865,14.865,14.865h39.029v17.472
	c0,8.21,6.655,14.865,14.865,14.865h288.25c8.209,0,14.865-6.655,14.865-14.865v-17.472h39.029c8.209,0,14.865-6.655,14.865-14.865
	V295.118c0-8.21-6.655-14.865-14.865-14.865h-95.439C354.115,280.253,350.496,283.872,350.496,288.337z"/>
<path d="M169.768,436.547c16.345,0,29.642-13.298,29.642-29.642s-13.297-29.642-29.642-29.642s-29.642,13.298-29.642,29.642
	S153.423,436.547,169.768,436.547z M169.768,393.432c7.43,0,13.474,6.044,13.474,13.474s-6.044,13.474-13.474,13.474
	s-13.474-6.044-13.474-13.474S162.338,393.432,169.768,393.432z"/>
<path d="M256,436.547c16.345,0,29.642-13.298,29.642-29.642S272.345,377.263,256,377.263s-29.642,13.298-29.642,29.642
	S239.655,436.547,256,436.547z M256,393.432c7.43,0,13.474,6.044,13.474,13.474S263.43,420.379,256,420.379
	c-7.43,0-13.474-6.044-13.474-13.474S248.57,393.432,256,393.432z"/>
<path d="M312.589,406.905c0,16.344,13.297,29.642,29.642,29.642c16.345,0,29.642-13.298,29.642-29.642s-13.297-29.642-29.642-29.642
	C325.886,377.263,312.589,390.561,312.589,406.905z M355.705,406.905c0,7.43-6.044,13.474-13.474,13.474
	s-13.474-6.044-13.474-13.474s6.044-13.474,13.474-13.474S355.705,399.475,355.705,406.905z"/>
<path d="M242.526,342.232c0-16.344-13.297-29.642-29.642-29.642s-29.642,13.298-29.642,29.642s13.297,29.642,29.642,29.642
	S242.526,358.576,242.526,342.232z M199.411,342.232c0-7.43,6.044-13.474,13.474-13.474s13.474,6.044,13.474,13.474
	s-6.044,13.474-13.474,13.474S199.411,349.661,199.411,342.232z"/>
<path d="M328.758,342.232c0-16.344-13.297-29.642-29.642-29.642c-16.345,0-29.642,13.298-29.642,29.642s13.297,29.642,29.642,29.642
	C315.461,371.874,328.758,358.576,328.758,342.232z M285.642,342.232c0-7.43,6.044-13.474,13.474-13.474s13.474,6.044,13.474,13.474
	s-6.044,13.474-13.474,13.474S285.642,349.661,285.642,342.232z"/>
<path d="M385.347,371.874c16.345,0,29.642-13.298,29.642-29.642s-13.297-29.642-29.642-29.642s-29.642,13.298-29.642,29.642
	S369.002,371.874,385.347,371.874z M385.347,328.758c7.43,0,13.474,6.044,13.474,13.474s-6.044,13.474-13.474,13.474
	s-13.474-6.044-13.474-13.474S377.917,328.758,385.347,328.758z"/>
<path d="M126.653,312.589c-16.345,0-29.642,13.298-29.642,29.642s13.297,29.642,29.642,29.642s29.642-13.298,29.642-29.642
	S142.998,312.589,126.653,312.589z M126.653,355.705c-7.43,0-13.474-6.044-13.474-13.474s6.044-13.474,13.474-13.474
	s13.474,6.044,13.474,13.474S134.083,355.705,126.653,355.705z"/>
<path d="M450.021,123.958h53.895c4.465,0,8.084-3.618,8.084-8.084V29.642c0-4.466-3.62-8.084-8.084-8.084h-53.895
	c-4.465,0-8.084,3.618-8.084,8.084v13.474h-26.947v-15.87C414.989,12.223,402.767,0,387.742,0H124.258
	c-15.025,0-27.247,12.223-27.247,27.246v15.87H70.063V29.642c0-4.466-3.62-8.084-8.084-8.084H8.084C3.62,21.558,0,25.176,0,29.642
	v86.232c0,4.466,3.62,8.084,8.084,8.084h53.895c4.465,0,8.084-3.618,8.084-8.084V102.4h26.947v26.947h-6.444
	c-20.221,0-36.672,16.451-36.672,36.671v6.445h-0.199C24.088,172.463,0,196.551,0,226.158v232.145C0,487.912,24.088,512,53.695,512
	h404.608C487.912,512,512,487.912,512,458.305V226.158c0-29.608-24.088-53.695-53.695-53.695h-0.199v-6.445
	c0-20.221-16.451-36.671-36.672-36.671h-6.444V102.4h26.947v13.474C441.937,120.339,445.556,123.958,450.021,123.958z
	 M458.105,94.316V51.2V37.726h37.726v70.063h-37.726V94.316z M53.895,51.2v43.116v13.474H16.168V37.726h37.726V51.2z
	 M113.179,94.316V51.2V27.246c0-6.108,4.97-11.078,11.079-11.078h263.485c6.108,0,11.079,4.969,11.079,11.078V51.2v43.116v35.032
	h-20.844H256.08c-0.006,0-0.012,0-0.018,0H134.023h-20.844V94.316z M279.814,156.862l58.835,26.149
	c-8.01,7.449-16.998,13.784-26.702,18.838L279.814,156.862z M296.807,208.47c-10.405,3.728-21.396,6.071-32.723,6.827v-52.64
	L296.807,208.47z M294.094,145.516h71.857c-4.212,9.042-9.487,17.41-15.626,24.992L294.094,145.516z M232.186,156.862
	l-32.134,44.987c-9.703-5.054-18.692-11.389-26.702-18.838L232.186,156.862z M161.674,170.508
	c-6.139-7.581-11.413-15.95-15.626-24.992h71.857L161.674,170.508z M247.916,162.658v52.64c-11.327-0.757-22.318-3.099-32.723-6.827
	L247.916,162.658z M70.063,86.232V59.284h26.947v26.947H70.063z M458.105,227.413v-38.782h0.199
	c20.692,0,37.527,16.835,37.527,37.527v232.145c0,20.693-16.835,37.528-37.527,37.528H53.695c-20.692,0-37.527-16.835-37.527-37.527
	V226.158c0-20.692,16.835-37.527,37.527-37.527h0.199v38.782c0,20.22,16.451,36.671,36.672,36.671h330.866
	C441.654,264.084,458.105,247.633,458.105,227.413z M421.433,145.516c11.306,0,20.504,9.198,20.504,20.503v61.394
	c0,11.305-9.198,20.503-20.504,20.503H90.567c-11.306,0.001-20.504-9.197-20.504-20.502V166.02c0-11.306,9.198-20.504,20.504-20.504
	h14.528h23.346c20.799,51.81,71.343,86.232,127.559,86.232s106.76-34.421,127.559-86.232h23.346H421.433z M414.989,86.232V59.284
	h26.947v26.947H414.989z"/>
</svg>